<svg xmlns="http://www.w3.org/2000/svg" viewBox="0 0 606.62 412"><defs><style>.cls-1{fill:#f8f8f8;}</style></defs><g id="Layer_2" data-name="Layer 2"><g id="Layer_1-2" data-name="Layer 1"><path class="cls-1" d="M606.62,31.22a5.24,5.24,0,0,0-5.39-5l-118,3.47C437.49.55,399.85-7.2,371.37,6.7c-25.59,12.5-37.73,39.07-43.46,60.12-12.77-29.09-34.49-56.81-42.83-61C281.22,3.9,269.45-2,239.44,46.71a8.38,8.38,0,0,1-5.58,3.86C203.92,56.28,103.5,80.34,74.59,149.19c-2.33,4.07-23.52,40.4-47.48,64.36C9.47,231.19-.65,253.24,0,272.55c.44,12.39,5.4,23,14.34,30.79a6.78,6.78,0,0,0,6.79,1.26c.25-.1.49-.2.73-.32a24,24,0,0,0,2,7.67c4.54,10.22,12.66,22.78,35.08,31.76a63.55,63.55,0,0,1-11.45-2.21l-6.61-2.2-.24,7c0,1.43-1,35.3,17.84,53.94C66.42,408,76.58,412,88.71,412c.87,0,1.74,0,2.62-.06,22.45-1,38.06-11.92,53.16-22.46,18.38-12.83,35.74-24.94,65.65-20.77,5.81,2.75,51.89,23.21,76.59-6,9.41-11.13,88.66-111.48-23.79-210.31a8.27,8.27,0,0,0-8.74-1.5,8,8,0,0,0-4.58,9.15c5.37,23,20.88,100.39-2.69,138.26-1.93-4-5.19-14.95-6.1-43.26a116.26,116.26,0,0,0-11.49-47.16c-13-27-37.73-60.85-81.3-69l-3.74-.7-1.81,3.36c-1.12,2.09-10.74,20.74-3,31.4,4.1,5.68,11.68,7.62,22.52,5.76a5.33,5.33,0,0,0,4.49-5,5.22,5.22,0,0,0-6.11-5.35c-6.38,1.13-10.93.56-12.46-1.56-2.33-3.22-.37-10.95,2.13-16.9,37,8.66,58.44,38.72,69.93,62.49a106,106,0,0,1,10.46,43c1.52,47.53,9.68,52.4,12.75,54.23a7.89,7.89,0,0,0,7.46.54l1.08-.54.73-1c26.87-35.27,17.52-103.91,9-143.59C358.51,255.76,287.28,346,278.78,356c-20.7,24.47-64.33,3.22-64.77,3l-.62-.31-.94-.18c-34.48-5.11-54.53,8.89-73.92,22.42-14.52,10.14-28.23,19.71-47.68,20.6-10.24.45-18.66-2.46-25-8.73-11-10.87-13.88-29.09-14.58-39.73,20.89,3.77,62.87,3.36,80.19,3a5.33,5.33,0,0,0,5.22-5.34l-.14-5.17-5-.19C58.6,342.66,41,324.82,33.4,307.72c-4.48-10.08,4.92-21.14,11.09-27a8.22,8.22,0,0,0,2-9.26,8,8,0,0,0-9.76-4.41c-11.89,3.84-17.44,14.64-20,23.66a31.76,31.76,0,0,1-6.3-18.57c-.57-16.22,8.64-35.87,24-51.27,26.2-26.19,48.37-65.15,49.33-66.84l.25-.52c27.48-65.93,131.17-88.81,151.68-92.73a19,19,0,0,0,12.61-8.7c20.67-33.51,30.9-37.55,32.08-37,6.1,3,27.41,31.48,38.85,58.24A319.6,319.6,0,0,0,281.1,56.22a11.94,11.94,0,0,0-12.4,2.55,11.69,11.69,0,0,0-3.21,12c6.28,20.61,34.33,39.51,50.49,48.94A14.19,14.19,0,0,0,337.25,109a54.07,54.07,0,0,0-.45-13.41c4.22,2.68,8.38,5.46,12.35,8.25,2.15,1.84,52.7,45.6,57.68,93.62l.11.65c.05.19,4.52,19.73-4.86,52.3-.8,2-1.47,4-2.08,5.92-.24.73-.43,1.47-.58,2.15-6.91,22.16-10.21,40.45-10.4,57.56,0,1.43,0,2.84,0,4.25a1,1,0,0,0,0,.17,142.14,142.14,0,0,0,3.05,40.62c3,12.88,8.16,25.48,16.68,35.7,4.37,5.25,9.73,9.9,16.2,12.3,3.11,1.15,6.78,1.94,10,.85a8.74,8.74,0,0,0,5.73-6.48c1.63-7.14-3.74-12.9-8.45-17.49-5.56-5.41-12-9.85-17.33-15.54a49.2,49.2,0,0,1-7.11-10.22,57.12,57.12,0,0,1-5-12q-.42-1.55-.75-3.12c-1.53-11.39-1.32-26-.59-37.63,1.13-18,6.3-32.91,9.8-46,5.43-20.32,9.41-37,7-57.38a57.52,57.52,0,0,0-1.08-8.07c-1.47-13.81-6.36-28.35-14.55-43.24a59.75,59.75,0,0,0,6.15-2.77,4.45,4.45,0,0,0,.77-.28,97.43,97.43,0,0,0,9.46-5.52l.22-.13h0c8.07-5.31,35.15-24.77,47.28-53.82C476.86,65.42,484.55,59,485.12,58.5l1.53-1,.42-1.36c4.75-5,48.66-13.55,114.72-19.42a5.24,5.24,0,0,0,4.83-5.5ZM326.89,107.9a3.7,3.7,0,0,1-2.92,3.21,3.83,3.83,0,0,1-2.82-.48c-12-7-40.26-25.11-45.7-42.94a1.25,1.25,0,0,1,.39-1.34,1.72,1.72,0,0,1,1.11-.46,1.6,1.6,0,0,1,.55.1,315.27,315.27,0,0,1,46.36,21.8,5.21,5.21,0,0,0,1.68,4.31A49.19,49.19,0,0,1,326.89,107.9ZM477.89,51c-3.12,2.79-11.14,11.62-21,35.27-9.68,23.18-32.75,43.81-50,53.13a1,1,0,0,0-.27.1,1,1,0,0,0-.2.09l-2.06.73c-2.47.83-5,1.58-7.8,2.29a230.35,230.35,0,0,0-40.79-46.84l-.34-.27c-6.4-4.51-13.2-8.92-20.22-13.13,2.76-15.74,12.11-52.3,40.78-66.29,25.27-12.33,59.93-4.49,103,23.3l1.36.87,23.95-.7C484.13,44.08,479.43,48,477.89,51Z"/></g></g></svg>